Coordinates																	
version=1																	
nRows=26																	
nColumns=18																	
inDegrees=yes																	
endheader																	
time	ground_thorax_rot_x	ground_thorax_rot_y	ground_thorax_rot_z	ground_thorax_tx	ground_thorax_ty	ground_thorax_tz	clav_prot	clav_elev	scapula_abduction	scapula_elevation	scapula_upward_rot	scapula_winging	plane_elv	shoulder_elv	axial_rot	elbow_flexion	pro_sup
16.03	1.26876915	-1.6982547	-8.25501311	-0.00423131	0.00403036	-0.00078352	-25.62821557	-4.37969746	-16.9254471	-4.63696851	14.36202187	5.06016598	-38.37610285	12.67043473	53.92676383	0	34.32
16.04	1.64569209	-1.75658164	-8.31565161	-0.00423131	0.00403036	-0.00078352	-25.69733195	-4.03449826	-16.9584501	-4.45373723	14.65795089	4.86488886	-37.81179489	12.23739256	57.74809387	0	34.32
16.05	1.40014206	-1.69933091	-8.26431837	-0.00423131	0.00403036	-0.00078352	-25.68345278	-4.22854145	-16.98973634	-4.55525349	14.4794709	4.97636093	-38.44069138	12.35589196	57.44262525	0	34.32
16.06	1.43834887	-1.6061102	-8.20723554	-0.00423131	0.00403036	-0.00078352	-25.77484044	-4.0382874	-16.98788654	-4.50533211	14.82847014	4.81899131	-41.18616503	11.66633475	64.77972596	0	34.32
16.07	1.4757076	-1.42066647	-8.28436001	-0.00423131	0.00403036	-0.00078352	-25.92006249	-4.09821464	-17.19539427	-4.57079232	14.86869992	4.82069478	-41.40089875	11.56374159	66.08258239	0	34.32
16.08	1.46325306	-1.50226692	-8.20247608	-0.00423131	0.00403036	-0.00078352	-25.87549131	-4.07575908	-17.11080454	-4.55696116	14.89307973	4.80964343	-41.40234538	11.54698933	66.0368619	0	34.32
16.09	1.55920926	-1.62625398	-8.18461547	-0.00423131	0.00403036	-0.00078352	-25.7973642	-3.96211872	-16.91155484	-4.50613118	15.05388901	4.73560211	-41.39668132	11.53281655	65.17331097	0	34.32
16.1	1.48249779	-1.64519728	-8.38691543	-0.00423131	0.00403036	-0.00078352	-25.71910863	-4.36648863	-17.22987036	-4.56940586	14.1155147	5.11243666	-34.60674122	13.2130404	47.56197136	0	34.32
16.11	1.47953341	-1.64568283	-8.22000023	-0.00423131	0.00403036	-0.00078352	-25.79244288	-4.09240412	-16.97030396	-4.56193143	14.88407809	4.82263	-41.23895633	11.57573527	65.909761	0	34.32
16.12	1.47913735	-1.66311305	-8.21987207	-0.00423131	0.00403036	-0.00078352	-25.78008032	-4.0793369	-16.9395348	-4.55673267	14.90598953	4.81338716	-41.30658935	11.60471452	65.88725225	0	34.32
16.13	1.46741667	-1.62816989	-8.19429705	-0.00423131	0.00403036	-0.00078352	-25.80558076	-4.11128706	-17.0066761	-4.56913572	14.85240252	4.83613242	-41.03259118	11.7255206	65.19983898	0	34.32
16.14	1.52938819	-1.71249302	-8.20611144	-0.00423131	0.00403036	-0.00078352	-25.72252018	-4.06138946	-16.85377312	-4.53601932	14.89321187	4.81374147	-40.68344648	11.73487303	64.5356441	0	34.32
16.15	1.47343332	-1.66158327	-8.22916968	-0.00423131	0.00403036	-0.00078352	-25.78177595	-4.10522889	-16.95923661	-4.56646851	14.86632143	4.83180877	-41.09667246	11.6572545	65.76062215	0	34.32
16.16	1.48540807	-1.68140578	-8.22596036	-0.00423131	0.00403036	-0.00078352	-25.75733106	-4.06973873	-16.90156706	-4.54865696	14.9088688	4.81071102	-41.16987375	11.66680893	65.55329789	0	34.32
16.17	1.48040615	-1.66267882	-8.20844925	-0.00423131	0.00403036	-0.00078352	-25.73510786	-4.03183581	-16.86899869	-4.52030457	14.91677112	4.79712008	-41.2460682	11.65266278	65.60817637	0	34.32
16.18	1.51416025	-1.67364102	-8.25095464	-0.00423131	0.00403036	-0.00078352	-25.74308221	-4.05853679	-17.00506749	-4.4858758	14.6999521	4.85973665	-38.5995325	12.1302344	59.01042499	0	34.32
16.19	1.51768823	-1.61125676	-8.27155008	-0.00423131	0.00403036	-0.00078352	-25.73039714	-4.05446652	-16.99525123	-4.4772717	14.68190942	4.86377708	-38.61324296	12.12524218	59.02291036	0	34.32
16.2	1.45503799	-1.57988295	-8.22464575	-0.00423131	0.00403036	-0.00078352	-25.77325539	-4.02933112	-16.9551684	-4.51217802	14.88260542	4.8026296	-41.06237196	11.58454133	65.33751	0	34.32
16.21	1.45264078	-1.6267315	-8.26467165	-0.00423131	0.00403036	-0.00078352	-25.68950294	-4.08474005	-16.96281705	-4.47828036	14.60594622	4.89538712	-38.50428201	12.19965786	58.41873244	0	34.32
16.22	1.4487685	-1.75278186	-8.19788728	-0.00423131	0.00403036	-0.00078352	-25.60514244	-4.0037806	-16.68243275	-4.47866674	14.87071345	4.80665898	-40.62766505	11.7687799	64.62020846	0	34.32
16.23	1.43949195	-1.68724574	-8.21890289	-0.00423131	0.00403036	-0.00078352	-25.59901822	-3.9795899	-16.68754557	-4.45586045	14.85518982	4.80236798	-40.62517071	11.69297866	64.61808467	0	34.32
16.24	1.44290357	-1.69069147	-8.29644587	-0.00423131	0.00403036	-0.00078352	-25.57675099	-4.05818933	-16.77766562	-4.45052201	14.60553249	4.89260272	-37.5966849	12.46278841	54.97764944	0	34.32
16.25	1.46748561	-1.62947152	-8.25032541	-0.00423131	0.00403036	-0.00078352	-25.62813097	-3.88637077	-16.71123147	-4.40835388	14.94021234	4.74823204	-40.31345842	11.71582514	63.33290699	0	34.32
16.26	1.47783037	-1.7291815	-8.27386024	-0.00423131	0.00403036	-0.00078352	-25.484547	-3.93055486	-16.58873608	-4.37514671	14.71512482	4.82652166	-37.95893723	12.37937993	56.043113	0	34.32
16.27	1.46739496	-1.69483023	-8.2781158	-0.00423131	0.00403036	-0.00078352	-25.48201092	-3.92721998	-16.58274328	-4.37361492	14.71958094	4.82488387	-37.95878701	12.40089261	56.06154951	0	34.32
16.28	1.46272408	-1.61512068	-8.15669646	-0.00423131	0.00403036	-0.00078352	-25.52895453	-3.80966978	-16.62529147	-4.3166619	14.83538886	4.7540353	-40.25965584	11.8938462	64.26708421	0	34.32
